<svg id="visual" viewBox="0 0 900 600" width="900" height="600" xmlns="http://www.w3.org/2000/svg" xmlns:xlink="http://www.w3.org/1999/xlink" version="1.1"><path d="M0 395L15 405C30 415 60 435 90 439.8C120 444.7 150 434.3 180 425.3C210 416.3 240 408.7 270 406C300 403.3 330 405.7 360 413C390 420.3 420 432.7 450 436.8C480 441 510 437 540 426.8C570 416.7 600 400.3 630 399.3C660 398.3 690 412.7 720 424.5C750 436.3 780 445.7 810 439.7C840 433.7 870 412.3 885 401.7L900 391L900 601L885 601C870 601 840 601 810 601C780 601 750 601 720 601C690 601 660 601 630 601C600 601 570 601 540 601C510 601 480 601 450 601C420 601 390 601 360 601C330 601 300 601 270 601C240 601 210 601 180 601C150 601 120 601 90 601C60 601 30 601 15 601L0 601Z" fill="#0288d1"></path><path d="M0 431L15 439.3C30 447.7 60 464.3 90 467.2C120 470 150 459 180 461C210 463 240 478 270 484C300 490 330 487 360 483.3C390 479.7 420 475.3 450 478.2C480 481 510 491 540 496C570 501 600 501 630 501C660 501 690 501 720 497C750 493 780 485 810 475.2C840 465.3 870 453.7 885 447.8L900 442L900 601L885 601C870 601 840 601 810 601C780 601 750 601 720 601C690 601 660 601 630 601C600 601 570 601 540 601C510 601 480 601 450 601C420 601 390 601 360 601C330 601 300 601 270 601C240 601 210 601 180 601C150 601 120 601 90 601C60 601 30 601 15 601L0 601Z" fill="#027fc7"></path><path d="M0 498L15 503C30 508 60 518 90 517.7C120 517.3 150 506.7 180 505C210 503.3 240 510.7 270 518.5C300 526.3 330 534.7 360 532.8C390 531 420 519 450 515.8C480 512.7 510 518.3 540 516.8C570 515.3 600 506.7 630 504C660 501.3 690 504.7 720 504.2C750 503.7 780 499.3 810 497.5C840 495.7 870 496.3 885 496.7L900 497L900 601L885 601C870 601 840 601 810 601C780 601 750 601 720 601C690 601 660 601 630 601C600 601 570 601 540 601C510 601 480 601 450 601C420 601 390 601 360 601C330 601 300 601 270 601C240 601 210 601 180 601C150 601 120 601 90 601C60 601 30 601 15 601L0 601Z" fill="#0277bd"></path></svg>